# xmcd
#
# Track frame offsets: 
#        150
#        18515
#        36540
#        49540
#        62302
#        72262
#        86405
#        105175
#        124460
#        136995
#        148685
#
# Disc length: 2246 seconds
#
# Revision: 2
# Processed by: cddbd v1.5.2PL0 Copyright (c) Steve Scherf et al.
# Submitted via: ExactAudioCopyFreeDBPlugin 1.0
#
DISCID=9408c40b
DTITLE=The Doors - Morrison hotel
DYEAR=1970
DGENRE=Blues
TTITLE0=Roadhouse blues
TTITLE1=Waiting for the sun
TTITLE2=You make me real
TTITLE3=Peace frog
TTITLE4=Blue sunday
TTITLE5=Ships of fools
TTITLE6=Land ho!
TTITLE7=The spy
TTITLE8=Queen of the highway
TTITLE9=Indian summer
TTITLE10=Maggie M'gill
EXTD=
EXTT0=
EXTT1=
EXTT2=
EXTT3=
EXTT4=
EXTT5=
EXTT6=
EXTT7=
EXTT8=
EXTT9=
EXTT10=
PLAYORDER=
